<svg width="14" height="20" viewBox="0 0 14 20" fill="none" xmlns="http://www.w3.org/2000/svg">
<path d="M4.52239 1.25H4.64628L4.72131 1.15142L5.33243 0.348579C5.37971 0.286464 5.4533 0.25 5.53136 0.25H9.09001C9.1611 0.25 9.22882 0.280264 9.27625 0.33322L10.0227 1.16678L10.0972 1.25H10.209H11.5C12.7426 1.25 13.75 2.25736 13.75 3.5V17.5C13.75 18.7426 12.7426 19.75 11.5 19.75H2.5C1.25736 19.75 0.25 18.7426 0.25 17.5V3.5C0.25 2.25736 1.25736 1.25 2.5 1.25H4.52239Z" fill="url(#paint0_linear_2_193)" stroke="black" stroke-width="0.5"/>
<rect x="1" y="2" width="12" height="17" rx="2" fill="url(#paint1_linear_2_193)"/>
<rect x="1.25" y="2.25" width="11.5" height="16.5" rx="1.75" stroke="black" stroke-opacity="0.65" stroke-width="0.5"/>
<line x1="1" y1="5.75" x2="13" y2="5.75" stroke="black" stroke-opacity="0.35" stroke-width="0.5"/>
<line x1="1" y1="14.75" x2="13" y2="14.75" stroke="black" stroke-opacity="0.35" stroke-width="0.5"/>
<line x1="1" y1="11.75" x2="13" y2="11.75" stroke="black" stroke-opacity="0.35" stroke-width="0.5"/>
<line x1="1" y1="8.75" x2="13" y2="8.75" stroke="black" stroke-opacity="0.35" stroke-width="0.5"/>
<defs>
<linearGradient id="paint0_linear_2_193" x1="0.5" y1="0" x2="13.5" y2="0" gradientUnits="userSpaceOnUse">
<stop stop-color="#008098"/>
<stop offset="0.270833" stop-color="#D9D9D9"/>
<stop offset="0.744792" stop-color="#D9D9D9"/>
<stop offset="1" stop-color="#008098"/>
</linearGradient>
<linearGradient id="paint1_linear_2_193" x1="0.5" y1="11" x2="13.5" y2="11" gradientUnits="userSpaceOnUse">
<stop stop-color="#A92033"/>
<stop offset="0.265625" stop-color="#EF7D36"/>
<stop offset="0.515625" stop-color="#DD3643"/>
<stop offset="0.75" stop-color="#B42428"/>
<stop offset="1" stop-color="#A92033"/>
</linearGradient>
</defs>
</svg>